<svg width="116.36363983154297" height="24" viewBox="0 0 116.36363983154297 24" xmlns="http://www.w3.org/2000/svg"
  style="color: rgb(254, 254, 254);">
  <g clip-path="url(#clip0_0_335)" fill-rule="evenodd" clip-rule="evenodd">
    <path
      d="M28.032 3.485a.222.222 0 00.024.067c.006.355.014.709.027 1.073a4979.123 4979.123 0 01.084 10.93c-.003.18.01.36.035.538.323 1.904 1.251 3.422 2.9 4.466 1.12.71 2.363 1.104 3.658 1.347a20.98 20.98 0 005.866.214c.113-.01.121-.06.121-.152-.005-1.454-.005-2.91 0-4.37 0-.117-.036-.137-.143-.137a10.497 10.497 0 01-2.263-.267c-1-.246-1.919-.646-2.642-1.403-.681-.713-1.061-1.553-1.055-2.554a286.7 286.7 0 000-3.71c-.002-.165.05-.19.199-.19h4.782c.113 0 .15-.023.15-.145a531.922 531.922 0 010-4.265c0-.131-.037-.15-.159-.15-1.634.005-3.278.005-4.916.005-.132 0-.177-.023-.177-.168V.77l-.008-.001.006-.003.006-.039h-6.495v2.758zM1.285 21.519c-.185.187-.372.375-.557.566-.004.064.033.059.066.054.01-.001.02-.003.028-.002h7.892a.235.235 0 00.183-.084l2.242-2.3 1.945-2.004.004-.003c.044-.045.075-.075.137-.009.322.342.648.676.973 1.01l.09.093a888.395 888.395 0 013.104 3.22.245.245 0 00.197.08h7.863l.025.002c.03.005.062.01.084-.03l-.013-.015c-.009-.01-.017-.02-.026-.028l-2.454-2.536-3.906-4.037c-.607-.63-1.217-1.26-1.83-1.887-.08-.088-.112-.148 0-.243a3.69 3.69 0 00.304-.311l2.76-2.848 4.348-4.5.851-.886h-7.951a.377.377 0 00-.298.13c-.422.446-.847.885-1.271 1.324l-.001.001-.365.377-.658.679c-.596.613-1.191 1.227-1.783 1.85-.093.093-.13.088-.214 0l-.679-.706-.004-.004-.001-.001-.962-1c-.82-.842-1.638-1.687-2.455-2.533a.307.307 0 00-.243-.108H.892c-.011 0-.024-.003-.036-.006-.04-.008-.082-.016-.1.047.603.61 1.2 1.221 1.792 1.836l3.873 4.005c.868.9 1.738 1.801 2.61 2.702.058.058.054.087 0 .142-.14.137-.275.277-.41.417l-.146.152-4.32 4.45-2.364 2.431c-.168.173-.337.343-.506.513zm75.88-15.013a14.2 14.2 0 00-1.882 1.259 1.053 1.053 0 00-.005-.069V4.933c0-.117-.018-.158-.15-.158-1.734.005-3.468.005-5.202 0-.126 0-.154.035-.154.157v17.143c-.002.129.037.152.16.152 1.728-.006 3.457-.006 5.186 0 .14 0 .16-.046.16-.168v-6.981c-.002-.085.01-.17.035-.25.255-.8.686-1.533 1.262-2.144.852-.934 1.902-1.6 3.04-2.134a16.1 16.1 0 013.839-1.233c.096-.018.13-.048.13-.152V4.916c0-.088 0-.155-.122-.144-.082.006-.166.007-.25.007-.067 0-.133.001-.2.004-2.057.11-4.06.7-5.848 1.723zm14.31 9.27v6.29c0 .14-.038.162-.167.162h-4.99c-.122 0-.159-.027-.159-.154V9.429c0-.122.037-.156.158-.156h4.992c.13 0 .166.03.166.163-.003 2.114-.003 4.227 0 6.34zm-34.051-.8h-9.638c-.09 0-.136 0-.155.022-.02.023-.013.069 0 .161.18 1.25 1.014 2.09 2.265 2.25.37.03.741.036 1.112.02h3.759l1.308.003c.435.002.871.003 1.307.003.712 0 1.423 0 2.134-.015.495-.01.931-.218 1.355-.449.307-.169.6-.363.875-.581a.148.148 0 01.196-.018c1.32.742 2.645 1.481 3.97 2.217.1.054.098.091.05.179-.84 1.486-2.1 2.473-3.669 3.096-.33.132-.67.237-1.016.316a1.413 1.413 0 01-.327.037l-4.1-.001c-2.733-.002-5.467-.004-8.2.001a5.605 5.605 0 01-2.928-.815c-1.293-.768-2.14-1.905-2.686-3.283a10.58 10.58 0 01-.662-3.005c-.095-1.046-.076-2.1.057-3.143.243-1.83.851-3.504 2.116-4.89a7.38 7.38 0 013.851-2.258c.093-.02.188-.03.282-.029l3.468-.003c3.004-.003 6.008-.007 9.013.014 1.276.009 2.395.522 3.34 1.384.902.823 1.479 1.856 1.896 2.987.394 1.108.649 2.261.758 3.432.08.736.112 1.477.096 2.217 0 .131-.041.15-.159.15h-9.668zm-2.53-3.56H47.77c-.089 0-.133 0-.153-.023-.021-.022-.016-.069-.005-.162.09-.788.571-1.285 1.233-1.646.302-.169.642-.255.988-.252 3.485.01 6.973.01 10.464 0a1.492 1.492 0 011.24.608c.306.41.526.877.646 1.374.019.07.013.107-.071.097a1.012 1.012 0 00-.105 0l-7.111.004z"
      fill="currentColor"></path>
    <path
      d="M113.607 20.397a10.451 10.451 0 002.149-9.746c-1.696-5.954-8.221-9.124-13.981-6.796-.984.397-1.863.964-2.714 1.589-1.028.764-2.2.992-3.46.764-.973-.175-1.84-.587-2.674-1.073a2.051 2.051 0 01-.91-1.101 2.726 2.726 0 01-.086-.313 3.19 3.19 0 00-5.396-1.542 3.187 3.187 0 00-.894 1.974c-.192 2.29 2.083 4.035 4.246 3.246a2.172 2.172 0 011.84.132 10.35 10.35 0 011.728 1.124c1.325 1.086 1.977 2.45 1.824 4.187a9.748 9.748 0 00.399 3.636 10.456 10.456 0 0017.929 3.919zm-12.321-9.728a5.272 5.272 0 00-.889 2.928 5.281 5.281 0 005.264 5.272 5.275 5.275 0 004.874-3.25 5.272 5.272 0 00-9.249-4.95z"
      fill="#fefefe"></path>
  </g>
  <defs>
    <linearGradient id="paint0_linear_0_335" x1="85.629" y1="1.216" x2="116.167" y2="24.119"
      gradientUnits="userSpaceOnUse">
      <stop stop-color="#CBF2FE"></stop>
      <stop offset="0.391" stop-color="#7DD5F9"></stop>
      <stop offset="0.735" stop-color="#E6B1F7"></stop>
      <stop offset="1" stop-color="#E1DFA2"></stop>
    </linearGradient>
    <clipPath id="clip0_0_335">
      <path fill="#fff" d="M0 0h116.364v24H0z"></path>
    </clipPath>
  </defs>
</svg>